# xmcd CD database file
#
# Track frame offsets:
#	150
#	15480
#	30415
#	47577
#	63892
#	76320
#	91460
#	114812
#	131775
#	146182
#	162220
#
# Disc length: 2295 seconds
#
# Revision: 6
# Processed by: cddbd v1.5.2PL0 Copyright (c) Steve Scherf et al.
# Submitted via: CDex 1.83
#
DISCID=8308f50b
DTITLE=Yearwood, Trisha - Jasper County
DYEAR=2005
DGENRE=Country
TTITLE0=Who Invented The Wheel
TTITLE1=Pistol
TTITLE2=Trying To Love You
TTITLE3=River Of You
TTITLE4=Baby Don't Let Go
TTITLE5=Standing Out In A Crowd
TTITLE6=Georgia Rain
TTITLE7=Sweet Love
TTITLE8=Try Me
TTITLE9=Gimme The Good Stuff
TTITLE10=It's Alright
EXTD=YEAR: 2005
EXTT0=
EXTT1=
EXTT2=
EXTT3=
EXTT4=
EXTT5=
EXTT6=
EXTT7=
EXTT8=
EXTT9=
EXTT10=
PLAYORDER=
